<svg xmlns="http://www.w3.org/2000/svg" viewBox="242.898 162.529 193.266 121.305" width="193.266" height="121.305">
<path fill="#404041" d="M259.816 281.253C259.71 281.358 259.583 281.434 259.433 281.477C259.283 281.521 259.12 281.548 258.944 281.556C258.769 281.565 258.601 281.569 258.443 281.569C258.091 281.569 257.867 281.526 257.769 281.438C257.673 281.349 257.58 281.147 257.492 280.829C257.44 280.6 257.342 280.236 257.202 279.734C257.061 279.232 256.907 278.708 256.74 278.164C256.572 277.617 256.405 277.117 256.237 276.659C256.071 276.201 255.934 275.91 255.828 275.786C255.617 275.54 255.363 275.418 255.062 275.418L250.152 275.418C249.905 275.418 249.703 275.426 249.544 275.444C249.386 275.462 249.245 275.505 249.123 275.576C248.999 275.647 248.898 275.749 248.818 275.88C248.74 276.012 248.656 276.201 248.568 276.447C248.303 277.186 248.056 277.913 247.828 278.625C247.599 279.337 247.388 280.074 247.194 280.829C247.124 281.077 247.04 281.257 246.944 281.371C246.847 281.486 246.657 281.543 246.376 281.543C246.288 281.543 246.191 281.539 246.085 281.53C245.981 281.521 245.883 281.517 245.795 281.517C245.514 281.517 245.293 281.486 245.135 281.424C244.976 281.362 244.898 281.164 244.898 280.829C244.898 280.548 244.976 280.232 245.135 279.88C245.293 279.527 245.416 279.22 245.504 278.954L250.759 264.802C250.935 264.345 251.128 264.023 251.34 263.839C251.551 263.654 251.912 263.561 252.423 263.561C252.686 263.561 252.911 263.579 253.095 263.615C253.281 263.65 253.434 263.711 253.558 263.798C253.681 263.887 253.787 264.014 253.875 264.182C253.963 264.349 254.051 264.557 254.139 264.802L259.315 278.954C259.349 279.061 259.407 279.198 259.487 279.363C259.565 279.533 259.64 279.704 259.71 279.88C259.78 280.056 259.842 280.223 259.896 280.38C259.948 280.54 259.975 280.672 259.975 280.777C259.975 280.988 259.922 281.147 259.816 281.253M254.825 272.645L252.634 266.07C252.598 265.93 252.511 265.859 252.37 265.859C252.211 265.859 252.115 265.93 252.079 266.07L249.887 272.645C249.853 272.733 249.826 272.822 249.809 272.908C249.791 272.997 249.782 273.085 249.782 273.173C249.782 273.315 249.831 273.406 249.927 273.451C250.025 273.495 250.134 273.516 250.257 273.516L254.561 273.516C254.789 273.516 254.904 273.402 254.904 273.173C254.904 272.978 254.878 272.803 254.825 272.645"/>
<path fill="#404041" d="M264.252 264.406C263.988 264.67 263.68 264.801 263.328 264.801C262.975 264.801 262.672 264.67 262.417 264.406C262.161 264.142 262.034 263.834 262.034 263.482C262.034 263.129 262.161 262.826 262.417 262.571C262.672 262.317 262.975 262.188 263.328 262.188C263.697 262.188 264.009 262.311 264.266 262.558C264.52 262.804 264.647 263.112 264.647 263.482C264.647 263.834 264.516 264.142 264.252 264.406M264.001 281.53C263.799 281.662 263.548 281.728 263.249 281.728C262.879 281.728 262.614 281.631 262.456 281.437C262.299 281.245 262.219 280.972 262.219 280.619C262.219 280.267 262.235 279.923 262.271 279.589C262.307 279.256 262.325 278.911 262.325 278.56L262.325 270.479C262.325 270.18 262.315 269.882 262.299 269.581C262.281 269.283 262.271 268.983 262.271 268.683C262.271 268.296 262.347 268.019 262.496 267.851C262.646 267.684 262.923 267.602 263.328 267.602C263.767 267.602 264.041 267.724 264.146 267.971C264.252 268.217 264.304 268.525 264.304 268.895L264.304 280.83C264.304 281.165 264.203 281.397 264.001 281.53"/>
<path fill="#404041" d="M278.63 268.789C278.55 269.018 278.463 269.264 278.366 269.528C278.269 269.792 278.177 270.048 278.089 270.293C278 270.541 277.938 270.716 277.904 270.822L274.419 280.143C274.259 280.565 274.053 280.913 273.798 281.186C273.543 281.459 273.168 281.595 272.675 281.595C272.2 281.595 271.839 281.451 271.594 281.16C271.346 280.87 271.145 280.531 270.985 280.143L267.157 270.716C267.105 270.575 267.025 270.401 266.92 270.188C266.814 269.978 266.712 269.753 266.616 269.515C266.519 269.278 266.439 269.053 266.379 268.841C266.317 268.631 266.285 268.454 266.285 268.314C266.285 268.121 266.329 267.979 266.417 267.891C266.505 267.803 266.624 267.738 266.774 267.694C266.924 267.65 267.077 267.628 267.237 267.628L267.658 267.628C267.905 267.628 268.099 267.68 268.24 267.786C268.38 267.891 268.5 268.023 268.596 268.182C268.693 268.34 268.767 268.516 268.821 268.709C268.873 268.904 268.926 269.088 268.979 269.264C269.014 269.405 269.058 269.545 269.112 269.687C269.164 269.828 269.216 269.968 269.27 270.11L272.623 278.586C272.64 278.62 272.663 278.67 272.689 278.73C272.715 278.792 272.763 278.823 272.834 278.823C272.904 278.823 272.957 278.796 272.992 278.744C273.028 278.69 273.054 278.638 273.072 278.586L275.977 270.479C276.011 270.373 276.069 270.188 276.148 269.924C276.228 269.659 276.306 269.393 276.386 269.118C276.465 268.847 276.543 268.591 276.623 268.354C276.703 268.116 276.759 267.971 276.795 267.917C276.9 267.794 277.028 267.716 277.178 267.68C277.327 267.644 277.473 267.628 277.614 267.628C277.878 267.628 278.133 267.658 278.379 267.72C278.626 267.781 278.749 267.987 278.749 268.34C278.749 268.41 278.71 268.561 278.63 268.789"/>
<path fill="#404041" d="M292.532 276.948C292.268 277.864 291.862 278.661 291.317 279.338C290.771 280.016 290.08 280.544 289.244 280.922C288.408 281.301 287.409 281.49 286.248 281.49C285.192 281.49 284.281 281.319 283.515 280.975C282.749 280.632 282.124 280.156 281.64 279.549C281.155 278.941 280.795 278.225 280.558 277.397C280.319 276.57 280.201 275.663 280.201 274.678C280.201 273.622 280.337 272.635 280.61 271.719C280.883 270.805 281.292 270.008 281.837 269.33C282.384 268.653 283.074 268.12 283.91 267.733C284.746 267.346 285.729 267.151 286.855 267.151C287.912 267.151 288.822 267.323 289.588 267.667C290.354 268.01 290.982 268.485 291.475 269.092C291.968 269.7 292.334 270.418 292.572 271.244C292.809 272.072 292.929 272.978 292.929 273.965C292.929 275.039 292.797 276.032 292.532 276.948M290.631 272.419C290.489 271.759 290.256 271.17 289.931 270.65C289.605 270.131 289.174 269.713 288.638 269.397C288.1 269.08 287.437 268.92 286.643 268.92C285.833 268.92 285.147 269.076 284.584 269.383C284.02 269.692 283.571 270.101 283.237 270.612C282.903 271.122 282.661 271.707 282.511 272.366C282.362 273.028 282.286 273.718 282.286 274.44C282.286 275.144 282.358 275.809 282.498 276.433C282.639 277.058 282.876 277.608 283.211 278.085C283.545 278.56 283.981 278.938 284.518 279.218C285.055 279.501 285.719 279.641 286.511 279.641C287.268 279.641 287.92 279.501 288.466 279.218C289.011 278.938 289.46 278.555 289.813 278.071C290.164 277.586 290.424 277.032 290.591 276.407C290.758 275.783 290.842 275.126 290.842 274.44C290.842 273.754 290.771 273.08 290.631 272.419"/>
<path fill="#404041" d="M306.249 268.789C306.169 269.018 306.082 269.264 305.985 269.528C305.888 269.792 305.796 270.048 305.708 270.293C305.619 270.541 305.557 270.716 305.523 270.822L302.038 280.143C301.878 280.565 301.672 280.913 301.417 281.186C301.162 281.459 300.787 281.595 300.294 281.595C299.819 281.595 299.458 281.451 299.213 281.16C298.965 280.87 298.764 280.531 298.604 280.143L294.776 270.716C294.722 270.575 294.644 270.401 294.539 270.188C294.433 269.978 294.331 269.753 294.235 269.515C294.138 269.278 294.058 269.053 293.998 268.841C293.936 268.631 293.904 268.454 293.904 268.314C293.904 268.121 293.948 267.979 294.036 267.891C294.124 267.803 294.243 267.738 294.393 267.694C294.543 267.65 294.696 267.628 294.856 267.628L295.277 267.628C295.524 267.628 295.718 267.68 295.859 267.786C295.999 267.891 296.119 268.023 296.215 268.182C296.312 268.34 296.386 268.516 296.44 268.709C296.492 268.904 296.545 269.088 296.598 269.264C296.633 269.405 296.677 269.545 296.731 269.687C296.783 269.828 296.835 269.968 296.889 270.11L300.242 278.586C300.259 278.62 300.282 278.67 300.308 278.73C300.334 278.792 300.382 278.823 300.453 278.823C300.523 278.823 300.576 278.796 300.611 278.744C300.647 278.69 300.673 278.638 300.691 278.586L303.596 270.479C303.63 270.373 303.688 270.188 303.767 269.924C303.847 269.659 303.925 269.393 304.005 269.118C304.084 268.847 304.163 268.591 304.242 268.354C304.322 268.116 304.378 267.971 304.414 267.917C304.519 267.794 304.647 267.716 304.797 267.68C304.946 267.644 305.092 267.628 305.233 267.628C305.497 267.628 305.752 267.658 305.998 267.72C306.245 267.781 306.368 267.987 306.368 268.34C306.368 268.41 306.329 268.561 306.249 268.789"/>
<path fill="#404041" d="M320.732 281.411C320.379 281.605 319.974 281.702 319.517 281.702C318.831 281.702 318.316 281.587 317.973 281.359C317.63 281.13 317.307 280.716 317.008 280.117C316.991 280.082 316.968 280.047 316.942 280.012C316.916 279.977 316.884 279.959 316.85 279.959C316.814 279.959 316.77 279.977 316.718 280.012C316.665 280.047 316.621 280.082 316.586 280.117C316.497 280.206 316.409 280.298 316.322 280.395C316.234 280.491 316.146 280.583 316.058 280.673C315.547 281.13 315.006 281.437 314.434 281.596C313.862 281.754 313.241 281.834 312.571 281.834C311.974 281.834 311.38 281.764 310.791 281.622C310.199 281.482 309.676 281.249 309.219 280.922C308.761 280.597 308.391 280.188 308.11 279.694C307.829 279.202 307.687 278.612 307.687 277.926C307.687 277.01 307.885 276.288 308.282 275.761C308.677 275.233 309.179 274.828 309.786 274.546C310.394 274.265 311.067 274.07 311.807 273.966C312.545 273.86 313.267 273.772 313.971 273.701C314.306 273.666 314.636 273.617 314.963 273.555C315.288 273.493 315.583 273.389 315.847 273.239C316.112 273.09 316.322 272.887 316.481 272.631C316.639 272.376 316.718 272.046 316.718 271.642C316.718 271.219 316.639 270.849 316.481 270.532C316.322 270.215 316.106 269.96 315.834 269.766C315.56 269.573 315.248 269.427 314.895 269.33C314.544 269.235 314.175 269.186 313.788 269.186C313.171 269.186 312.673 269.238 312.295 269.344C311.917 269.449 311.609 269.578 311.37 269.727C311.133 269.876 310.949 270.044 310.817 270.229C310.684 270.413 310.57 270.58 310.474 270.73C310.376 270.88 310.275 271.007 310.169 271.113C310.065 271.219 309.914 271.272 309.72 271.272C309.016 271.272 308.665 270.902 308.665 270.163C308.665 269.652 308.858 269.226 309.245 268.882C309.632 268.539 310.095 268.262 310.632 268.051C311.168 267.839 311.723 267.69 312.295 267.602C312.866 267.512 313.347 267.469 313.734 267.469C315.388 267.469 316.643 267.861 317.497 268.645C318.35 269.427 318.777 270.664 318.777 272.354C318.777 273.27 318.759 274.185 318.725 275.101C318.689 276.015 318.672 276.932 318.672 277.847C318.672 277.97 318.676 278.137 318.685 278.349C318.694 278.56 318.725 278.766 318.777 278.969C318.831 279.171 318.909 279.342 319.015 279.484C319.12 279.625 319.27 279.694 319.464 279.694C319.623 279.694 319.737 279.659 319.808 279.589C319.878 279.519 320.036 279.484 320.283 279.484C320.547 279.484 320.775 279.559 320.969 279.707C321.163 279.857 321.26 280.074 321.26 280.355C321.26 280.865 321.083 281.217 320.732 281.411M316.665 274.716C316.647 274.656 316.603 274.624 316.533 274.624C316.481 274.624 316.409 274.65 316.322 274.704C316.006 274.898 315.623 275.043 315.174 275.141C314.724 275.237 314.258 275.316 313.774 275.378C313.289 275.44 312.81 275.506 312.334 275.576C311.859 275.646 311.432 275.765 311.055 275.933C310.676 276.1 310.368 276.333 310.131 276.631C309.893 276.932 309.774 277.335 309.774 277.847C309.774 278.269 309.857 278.63 310.024 278.929C310.191 279.228 310.412 279.466 310.684 279.642C310.957 279.817 311.27 279.946 311.621 280.025C311.974 280.104 312.334 280.144 312.704 280.144C313.444 280.144 314.151 279.981 314.829 279.655C315.508 279.33 316.006 278.806 316.322 278.085C316.515 277.644 316.626 277.12 316.652 276.513C316.678 275.906 316.692 275.364 316.692 274.888C316.692 274.836 316.683 274.779 316.665 274.716"/>
<path fill="#404041" d="M342.449 281.543C342.247 281.667 341.996 281.728 341.697 281.728C341.45 281.728 341.26 281.683 341.128 281.595C340.998 281.509 340.895 281.395 340.825 281.252C340.755 281.112 340.715 280.954 340.707 280.777C340.697 280.601 340.693 280.416 340.693 280.224C340.693 279.923 340.707 279.638 340.733 279.365C340.759 279.093 340.773 278.806 340.773 278.507L340.745 274.81L340.745 273.992C340.745 273.675 340.737 273.358 340.719 273.041C340.703 272.723 340.671 272.416 340.627 272.117C340.583 271.817 340.518 271.562 340.43 271.351C340.183 270.752 339.796 270.303 339.267 270.004C338.74 269.705 338.168 269.555 337.551 269.555C336.971 269.555 336.42 269.705 335.901 270.004C335.381 270.303 334.998 270.726 334.752 271.271C334.523 271.746 334.378 272.318 334.317 272.987C334.255 273.657 334.224 274.255 334.224 274.784L334.224 279.167C334.224 279.448 334.238 279.726 334.264 279.999C334.29 280.272 334.303 280.548 334.303 280.831C334.303 281.182 334.202 281.421 334 281.543C333.797 281.667 333.547 281.728 333.248 281.728C332.895 281.728 332.64 281.631 332.48 281.437C332.323 281.244 332.243 280.972 332.243 280.619C332.243 280.268 332.257 279.915 332.283 279.562C332.31 279.211 332.323 278.859 332.323 278.507L332.323 273.2C332.323 272.917 332.31 272.601 332.283 272.248C332.257 271.897 332.2 271.588 332.111 271.325C331.918 270.76 331.558 270.325 331.03 270.016C330.501 269.709 329.955 269.555 329.392 269.555C328.776 269.555 328.217 269.691 327.714 269.964C327.213 270.237 326.804 270.629 326.487 271.139C326.172 271.65 325.973 272.2 325.893 272.789C325.815 273.38 325.775 273.964 325.775 274.545L325.775 278.718C325.775 279.071 325.787 279.422 325.815 279.774C325.841 280.126 325.853 280.478 325.853 280.831C325.853 281.182 325.753 281.421 325.55 281.543C325.348 281.667 325.097 281.728 324.798 281.728C324.445 281.728 324.191 281.623 324.032 281.411C323.874 281.2 323.794 280.928 323.794 280.593C323.794 280.24 323.806 279.893 323.834 279.55C323.86 279.207 323.874 278.859 323.874 278.507L323.874 272.883C323.874 272.496 323.86 272.155 323.834 271.865C323.806 271.574 323.768 271.294 323.716 271.021C323.662 270.748 323.592 270.471 323.504 270.189C323.415 269.908 323.31 269.592 323.187 269.242C323.098 269.017 323.056 268.809 323.056 268.618C323.056 268.287 323.183 268.036 323.437 267.863C323.692 267.688 323.97 267.602 324.269 267.602C324.534 267.602 324.74 267.649 324.889 267.745C325.039 267.839 325.154 267.966 325.233 268.121C325.312 268.279 325.366 268.452 325.392 268.644C325.418 268.835 325.458 269.024 325.511 269.215C325.528 269.25 325.546 269.303 325.563 269.371C325.581 269.441 325.625 269.476 325.695 269.476C325.731 269.476 325.783 269.445 325.853 269.382C325.924 269.319 325.977 269.271 326.012 269.234C326.312 268.931 326.583 268.677 326.83 268.472C327.076 268.266 327.333 268.102 327.596 267.977C327.861 267.852 328.151 267.758 328.468 267.695C328.785 267.632 329.154 267.602 329.577 267.602C330.421 267.602 331.139 267.731 331.73 267.99C332.319 268.248 332.905 268.692 333.485 269.315C333.573 269.406 333.651 269.45 333.723 269.45C333.811 269.45 333.908 269.396 334.012 269.289C334.329 268.968 334.611 268.7 334.858 268.486C335.104 268.272 335.364 268.096 335.636 267.963C335.909 267.83 336.209 267.735 336.535 267.682C336.859 267.628 337.242 267.602 337.683 267.602C338.686 267.602 339.514 267.735 340.165 268.003C340.817 268.27 341.328 268.653 341.697 269.152C342.066 269.65 342.321 270.259 342.463 270.981C342.603 271.704 342.674 272.522 342.674 273.437L342.674 278.85C342.674 279.185 342.686 279.514 342.714 279.839C342.74 280.166 342.754 280.496 342.754 280.831C342.754 281.182 342.651 281.421 342.449 281.543"/>
<path fill="#404041" d="M364.313 281.543C364.11 281.667 363.859 281.728 363.561 281.728C363.314 281.728 363.124 281.683 362.992 281.595C362.861 281.509 362.759 281.395 362.689 281.252C362.619 281.112 362.579 280.954 362.571 280.777C362.561 280.601 362.557 280.416 362.557 280.224C362.557 279.923 362.571 279.638 362.596 279.365C362.623 279.093 362.636 278.806 362.636 278.507L362.609 274.81L362.609 273.992C362.609 273.675 362.6 273.358 362.583 273.041C362.566 272.723 362.535 272.416 362.491 272.117C362.446 271.817 362.382 271.562 362.292 271.351C362.047 270.752 361.658 270.303 361.131 270.004C360.603 269.705 360.03 269.555 359.415 269.555C358.833 269.555 358.283 269.705 357.765 270.004C357.245 270.303 356.862 270.726 356.615 271.271C356.387 271.746 356.242 272.318 356.18 272.987C356.118 273.657 356.088 274.255 356.088 274.784L356.088 279.167C356.088 279.448 356.1 279.726 356.128 279.999C356.154 280.272 356.167 280.548 356.167 280.831C356.167 281.182 356.066 281.421 355.863 281.543C355.661 281.667 355.41 281.728 355.11 281.728C354.759 281.728 354.502 281.631 354.344 281.437C354.187 281.244 354.107 280.972 354.107 280.619C354.107 280.268 354.121 279.915 354.147 279.562C354.173 279.211 354.187 278.859 354.187 278.507L354.187 273.2C354.187 272.917 354.173 272.601 354.147 272.248C354.121 271.897 354.063 271.588 353.975 271.325C353.782 270.76 353.421 270.325 352.892 270.016C352.365 269.709 351.819 269.555 351.256 269.555C350.638 269.555 350.081 269.691 349.579 269.964C349.077 270.237 348.668 270.629 348.351 271.139C348.034 271.65 347.837 272.2 347.757 272.789C347.679 273.38 347.637 273.964 347.637 274.545L347.637 278.718C347.637 279.071 347.651 279.422 347.679 279.774C347.703 280.126 347.717 280.478 347.717 280.831C347.717 281.182 347.616 281.421 347.414 281.543C347.211 281.667 346.961 281.728 346.662 281.728C346.309 281.728 346.053 281.623 345.896 281.411C345.736 281.2 345.658 280.928 345.658 280.593C345.658 280.24 345.67 279.893 345.698 279.55C345.724 279.207 345.736 278.859 345.736 278.507L345.736 272.883C345.736 272.496 345.724 272.155 345.698 271.865C345.67 271.574 345.631 271.294 345.578 271.021C345.526 270.748 345.455 270.471 345.367 270.189C345.279 269.908 345.174 269.592 345.05 269.242C344.962 269.017 344.918 268.809 344.918 268.618C344.918 268.287 345.046 268.036 345.301 267.863C345.556 267.688 345.834 267.602 346.133 267.602C346.397 267.602 346.604 267.649 346.753 267.745C346.903 267.839 347.017 267.966 347.097 268.121C347.176 268.279 347.228 268.452 347.256 268.644C347.282 268.835 347.322 269.024 347.374 269.215C347.392 269.25 347.408 269.303 347.427 269.371C347.444 269.441 347.488 269.476 347.559 269.476C347.594 269.476 347.646 269.445 347.717 269.382C347.788 269.319 347.841 269.271 347.876 269.234C348.174 268.931 348.447 268.677 348.695 268.472C348.94 268.266 349.197 268.102 349.459 267.977C349.724 267.852 350.015 267.758 350.331 267.695C350.649 267.632 351.018 267.602 351.44 267.602C352.285 267.602 353.002 267.731 353.592 267.99C354.183 268.248 354.767 268.692 355.348 269.315C355.436 269.406 355.515 269.45 355.585 269.45C355.675 269.45 355.771 269.396 355.876 269.289C356.194 268.968 356.475 268.7 356.721 268.486C356.968 268.272 357.227 268.096 357.5 267.963C357.773 267.83 358.073 267.735 358.398 267.682C358.723 267.628 359.106 267.602 359.547 267.602C360.55 267.602 361.377 267.735 362.029 268.003C362.681 268.27 363.19 268.653 363.561 269.152C363.93 269.65 364.185 270.259 364.327 270.981C364.467 271.704 364.537 272.522 364.537 273.437L364.537 278.85C364.537 279.185 364.55 279.514 364.577 279.839C364.604 280.166 364.616 280.496 364.616 280.831C364.616 281.182 364.515 281.421 364.313 281.543"/>
<path fill="#404041" d="M380.512 281.411C380.159 281.605 379.756 281.702 379.297 281.702C378.611 281.702 378.096 281.587 377.753 281.359C377.41 281.13 377.087 280.716 376.789 280.117C376.771 280.082 376.749 280.047 376.722 280.012C376.696 279.977 376.666 279.959 376.63 279.959C376.594 279.959 376.55 279.977 376.498 280.012C376.445 280.047 376.401 280.082 376.366 280.117C376.277 280.206 376.189 280.298 376.102 280.395C376.014 280.491 375.926 280.583 375.838 280.673C375.327 281.13 374.787 281.437 374.214 281.596C373.642 281.754 373.021 281.834 372.353 281.834C371.754 281.834 371.16 281.764 370.571 281.622C369.981 281.482 369.456 281.249 368.999 280.922C368.541 280.597 368.171 280.188 367.89 279.694C367.609 279.202 367.467 278.612 367.467 277.926C367.467 277.01 367.665 276.288 368.062 275.761C368.458 275.233 368.959 274.828 369.566 274.546C370.174 274.265 370.847 274.07 371.587 273.966C372.327 273.86 373.047 273.772 373.752 273.701C374.086 273.666 374.417 273.617 374.743 273.555C375.068 273.493 375.363 273.389 375.627 273.239C375.892 273.09 376.102 272.887 376.261 272.631C376.42 272.376 376.498 272.046 376.498 271.642C376.498 271.219 376.42 270.849 376.261 270.532C376.102 270.215 375.887 269.96 375.614 269.766C375.34 269.573 375.028 269.427 374.677 269.33C374.324 269.235 373.955 269.186 373.568 269.186C372.951 269.186 372.454 269.238 372.075 269.344C371.697 269.449 371.389 269.578 371.152 269.727C370.914 269.876 370.729 270.044 370.596 270.229C370.464 270.413 370.35 270.58 370.254 270.73C370.156 270.88 370.055 271.007 369.949 271.113C369.845 271.219 369.694 271.272 369.502 271.272C368.796 271.272 368.445 270.902 368.445 270.163C368.445 269.652 368.638 269.226 369.027 268.882C369.412 268.539 369.875 268.262 370.412 268.051C370.948 267.839 371.503 267.69 372.075 267.602C372.648 267.512 373.127 267.469 373.514 267.469C375.168 267.469 376.423 267.861 377.277 268.645C378.13 269.427 378.557 270.664 378.557 272.354C378.557 273.27 378.539 274.185 378.505 275.101C378.469 276.015 378.452 276.932 378.452 277.847C378.452 277.97 378.457 278.137 378.465 278.349C378.475 278.56 378.505 278.766 378.557 278.969C378.611 279.171 378.689 279.342 378.795 279.484C378.9 279.625 379.05 279.694 379.245 279.694C379.403 279.694 379.517 279.659 379.588 279.589C379.658 279.519 379.816 279.484 380.063 279.484C380.327 279.484 380.555 279.559 380.749 279.707C380.943 279.857 381.041 280.074 381.041 280.355C381.041 280.865 380.863 281.217 380.512 281.411M376.445 274.716C376.427 274.656 376.383 274.624 376.313 274.624C376.261 274.624 376.189 274.65 376.102 274.704C375.786 274.898 375.401 275.043 374.954 275.141C374.505 275.237 374.038 275.316 373.554 275.378C373.069 275.44 372.59 275.506 372.115 275.576C371.639 275.646 371.213 275.765 370.835 275.933C370.456 276.1 370.148 276.333 369.911 276.631C369.672 276.932 369.554 277.335 369.554 277.847C369.554 278.269 369.638 278.63 369.805 278.929C369.971 279.228 370.192 279.466 370.464 279.642C370.737 279.817 371.049 279.946 371.401 280.025C371.754 280.104 372.115 280.144 372.485 280.144C373.224 280.144 373.931 279.981 374.611 279.655C375.288 279.33 375.786 278.806 376.102 278.085C376.295 277.644 376.406 277.12 376.432 276.513C376.458 275.906 376.472 275.364 376.472 274.888C376.472 274.836 376.463 274.779 376.445 274.716"/>
<path fill="#404041" d="M387.021 281.358C386.678 281.569 386.285 281.675 385.846 281.675C385.212 281.675 384.705 281.582 384.328 281.398C383.949 281.212 383.658 280.953 383.456 280.62C383.253 280.285 383.125 279.884 383.073 279.417C383.02 278.95 382.994 278.453 382.994 277.926L382.994 265.859C382.994 265.506 382.981 265.159 382.954 264.814C382.928 264.471 382.915 264.125 382.915 263.772C382.915 263.068 383.267 262.715 383.971 262.715C384.218 262.715 384.41 262.755 384.552 262.835C384.693 262.914 384.799 263.024 384.869 263.166C384.939 263.306 384.978 263.469 384.988 263.653C384.996 263.838 385 264.028 385 264.221C385 264.503 384.992 264.785 384.974 265.065C384.956 265.347 384.948 265.63 384.948 265.911L384.948 277.767C384.948 277.908 384.952 278.092 384.961 278.322C384.97 278.551 385 278.779 385.054 279.008C385.106 279.237 385.19 279.431 385.304 279.589C385.419 279.746 385.581 279.826 385.794 279.826C385.898 279.826 386.004 279.764 386.11 279.641C386.215 279.519 386.391 279.457 386.638 279.457C386.902 279.457 387.117 279.527 387.285 279.668C387.452 279.81 387.536 280.021 387.536 280.302C387.536 280.795 387.364 281.147 387.021 281.358"/>
<path fill="#404041" d="M391.892 264.406C391.628 264.67 391.32 264.801 390.968 264.801C390.615 264.801 390.312 264.67 390.057 264.406C389.801 264.142 389.674 263.834 389.674 263.482C389.674 263.129 389.801 262.826 390.057 262.571C390.312 262.317 390.615 262.188 390.968 262.188C391.337 262.188 391.649 262.311 391.906 262.558C392.16 262.804 392.287 263.112 392.287 263.482C392.287 263.834 392.156 264.142 391.892 264.406M391.641 281.53C391.439 281.662 391.188 281.728 390.889 281.728C390.519 281.728 390.256 281.631 390.097 281.437C389.937 281.245 389.859 280.972 389.859 280.619C389.859 280.267 389.876 279.923 389.911 279.589C389.946 279.256 389.965 278.911 389.965 278.56L389.965 270.479C389.965 270.18 389.955 269.882 389.937 269.581C389.921 269.283 389.911 268.983 389.911 268.683C389.911 268.296 389.987 268.019 390.136 267.851C390.285 267.684 390.563 267.602 390.968 267.602C391.407 267.602 391.681 267.724 391.786 267.971C391.892 268.217 391.944 268.525 391.944 268.895L391.944 280.83C391.944 281.165 391.844 281.397 391.641 281.53"/>
<path fill="#404041" d="M398.493 264.406C398.229 264.67 397.921 264.801 397.569 264.801C397.216 264.801 396.913 264.67 396.658 264.406C396.402 264.142 396.275 263.834 396.275 263.482C396.275 263.129 396.402 262.826 396.658 262.571C396.913 262.317 397.216 262.188 397.569 262.188C397.938 262.188 398.251 262.311 398.507 262.558C398.761 262.804 398.888 263.112 398.888 263.482C398.888 263.834 398.757 264.142 398.493 264.406M398.242 281.53C398.04 281.662 397.789 281.728 397.49 281.728C397.12 281.728 396.855 281.631 396.698 281.437C396.538 281.245 396.46 280.972 396.46 280.619C396.46 280.267 396.477 279.923 396.512 279.589C396.548 279.256 396.566 278.911 396.566 278.56L396.566 270.479C396.566 270.18 396.556 269.882 396.538 269.581C396.522 269.283 396.512 268.983 396.512 268.683C396.512 268.296 396.588 268.019 396.737 267.851C396.886 267.684 397.164 267.602 397.569 267.602C398.008 267.602 398.282 267.724 398.387 267.971C398.493 268.217 398.545 268.525 398.545 268.895L398.545 280.83C398.545 281.165 398.445 281.397 398.242 281.53"/>
<path fill="#404041" d="M410.243 280.223C409.996 280.522 409.688 280.764 409.319 280.949C408.949 281.133 408.557 281.27 408.144 281.358C407.731 281.446 407.356 281.49 407.023 281.49C406.405 281.49 405.816 281.375 405.252 281.144C404.689 280.915 404.25 280.526 403.933 279.98C403.632 279.468 403.47 278.905 403.444 278.292C403.418 277.678 403.404 277.081 403.404 276.5L403.378 270.36C403.378 270.223 403.325 270.116 403.22 270.039C403.115 269.963 402.991 269.924 402.85 269.924C402.692 269.924 402.537 269.933 402.387 269.951C402.237 269.969 402.084 269.977 401.926 269.977C401.627 269.977 401.397 269.891 401.239 269.716C401.08 269.543 401.002 269.309 401.002 269.014C401.002 268.79 401.072 268.585 401.212 268.403C401.353 268.22 401.547 268.128 401.794 268.128C401.988 268.128 402.177 268.138 402.361 268.156C402.546 268.172 402.734 268.182 402.929 268.182C403.051 268.182 403.157 268.156 403.245 268.102C403.334 268.05 403.378 267.952 403.378 267.812C403.378 267.268 403.364 266.721 403.338 266.175C403.312 265.63 403.299 265.084 403.299 264.537C403.299 264.134 403.364 263.833 403.496 263.641C403.629 263.446 403.915 263.35 404.355 263.35C404.601 263.35 404.795 263.39 404.936 263.469C405.076 263.548 405.182 263.659 405.252 263.799C405.323 263.94 405.362 264.102 405.371 264.287C405.381 264.471 405.385 264.661 405.385 264.854C405.385 265.331 405.375 265.801 405.358 266.268C405.341 266.735 405.333 267.204 405.333 267.681C405.333 267.785 405.349 267.895 405.385 268.01C405.419 268.124 405.507 268.182 405.649 268.182C406.124 268.182 406.594 268.172 407.061 268.156C407.528 268.138 407.999 268.128 408.474 268.128C408.773 268.128 409.028 268.194 409.24 268.323C409.451 268.455 409.557 268.684 409.557 269.014C409.557 269.361 409.451 269.608 409.24 269.756C409.028 269.903 408.765 269.977 408.447 269.977C407.99 269.977 407.532 269.969 407.075 269.951C406.618 269.933 406.159 269.924 405.702 269.924C405.561 269.924 405.467 269.97 405.425 270.065C405.381 270.158 405.349 270.264 405.333 270.382C405.297 270.977 405.283 271.6 405.293 272.253C405.3 272.905 405.305 273.528 405.305 274.121L405.305 275.139C405.305 275.564 405.319 276.009 405.345 276.476C405.371 276.941 405.407 277.377 405.451 277.785C405.495 278.191 405.561 278.496 405.649 278.701C405.824 279.091 406.049 279.344 406.323 279.464C406.594 279.582 406.933 279.641 407.338 279.641C407.743 279.641 408.043 279.571 408.236 279.43C408.431 279.29 408.588 279.14 408.711 278.981C408.835 278.823 408.966 278.673 409.108 278.533C409.249 278.392 409.467 278.322 409.768 278.322C409.996 278.322 410.195 278.406 410.362 278.572C410.529 278.739 410.614 278.938 410.614 279.166C410.614 279.571 410.49 279.924 410.243 280.223"/>
<path fill="#404041" d="M420.066 280.223C419.819 280.522 419.511 280.764 419.142 280.949C418.772 281.133 418.38 281.27 417.967 281.358C417.553 281.446 417.179 281.49 416.844 281.49C416.228 281.49 415.639 281.375 415.075 281.144C414.512 280.915 414.071 280.526 413.756 279.98C413.455 279.468 413.293 278.905 413.267 278.292C413.241 277.678 413.227 277.081 413.227 276.5L413.201 270.36C413.201 270.223 413.148 270.116 413.042 270.039C412.936 269.963 412.814 269.924 412.673 269.924C412.515 269.924 412.36 269.933 412.21 269.951C412.06 269.969 411.907 269.977 411.749 269.977C411.448 269.977 411.22 269.891 411.061 269.716C410.903 269.543 410.824 269.309 410.824 269.014C410.824 268.79 410.895 268.585 411.035 268.403C411.176 268.22 411.37 268.128 411.616 268.128C411.811 268.128 411.999 268.138 412.184 268.156C412.369 268.172 412.557 268.182 412.752 268.182C412.874 268.182 412.98 268.156 413.068 268.102C413.157 268.05 413.201 267.952 413.201 267.812C413.201 267.268 413.187 266.721 413.161 266.175C413.134 265.63 413.122 265.084 413.122 264.537C413.122 264.134 413.187 263.833 413.319 263.641C413.451 263.446 413.738 263.35 414.177 263.35C414.424 263.35 414.618 263.39 414.759 263.469C414.899 263.548 415.005 263.659 415.075 263.799C415.146 263.94 415.185 264.102 415.194 264.287C415.203 264.471 415.208 264.661 415.208 264.854C415.208 265.331 415.198 265.801 415.181 266.268C415.164 266.735 415.154 267.204 415.154 267.681C415.154 267.785 415.171 267.895 415.208 268.01C415.242 268.124 415.33 268.182 415.472 268.182C415.947 268.182 416.417 268.172 416.884 268.156C417.351 268.138 417.822 268.128 418.297 268.128C418.596 268.128 418.851 268.194 419.063 268.323C419.274 268.455 419.38 268.684 419.38 269.014C419.38 269.361 419.274 269.608 419.063 269.756C418.851 269.903 418.588 269.977 418.27 269.977C417.812 269.977 417.355 269.969 416.898 269.951C416.439 269.933 415.982 269.924 415.524 269.924C415.384 269.924 415.29 269.97 415.246 270.065C415.203 270.158 415.171 270.264 415.154 270.382C415.119 270.977 415.106 271.6 415.115 272.253C415.123 272.905 415.128 273.528 415.128 274.121L415.128 275.139C415.128 275.564 415.142 276.009 415.168 276.476C415.194 276.941 415.229 277.377 415.274 277.785C415.316 278.191 415.384 278.496 415.472 278.701C415.647 279.091 415.871 279.344 416.144 279.464C416.417 279.582 416.756 279.641 417.161 279.641C417.566 279.641 417.866 279.571 418.059 279.43C418.253 279.29 418.411 279.14 418.534 278.981C418.658 278.823 418.789 278.673 418.931 278.533C419.072 278.392 419.29 278.322 419.59 278.322C419.819 278.322 420.018 278.406 420.185 278.572C420.351 278.739 420.435 278.938 420.435 279.166C420.435 279.571 420.312 279.924 420.066 280.223"/>
<path fill="#404041" d="M433.769 276.948C433.505 277.864 433.099 278.661 432.554 279.338C432.008 280.016 431.317 280.544 430.481 280.922C429.645 281.301 428.646 281.49 427.485 281.49C426.428 281.49 425.518 281.319 424.752 280.975C423.986 280.632 423.361 280.156 422.877 279.549C422.392 278.941 422.031 278.225 421.794 277.397C421.556 276.57 421.438 275.663 421.438 274.678C421.438 273.622 421.574 272.635 421.847 271.719C422.12 270.805 422.529 270.008 423.076 269.33C423.621 268.653 424.311 268.12 425.147 267.733C425.983 267.346 426.965 267.151 428.092 267.151C429.149 267.151 430.059 267.323 430.825 267.667C431.591 268.01 432.219 268.485 432.712 269.092C433.205 269.7 433.57 270.418 433.809 271.244C434.046 272.072 434.164 272.978 434.164 273.965C434.164 275.039 434.033 276.032 433.769 276.948M431.868 272.419C431.726 271.759 431.494 271.17 431.168 270.65C430.842 270.131 430.411 269.713 429.875 269.397C429.337 269.08 428.672 268.92 427.882 268.92C427.07 268.92 426.384 269.076 425.821 269.383C425.257 269.692 424.808 270.101 424.475 270.612C424.14 271.122 423.898 271.707 423.748 272.366C423.599 273.028 423.525 273.718 423.525 274.44C423.525 275.144 423.593 275.809 423.735 276.433C423.876 277.058 424.113 277.608 424.448 278.085C424.782 278.56 425.218 278.938 425.755 279.218C426.292 279.501 426.956 279.641 427.748 279.641C428.506 279.641 429.157 279.501 429.702 279.218C430.248 278.938 430.697 278.555 431.05 278.071C431.401 277.586 431.661 277.032 431.828 276.407C431.996 275.783 432.079 275.126 432.079 274.44C432.079 273.754 432.008 273.08 431.868 272.419"/>
<path fill="#cbdb2a" d="M298.254 186.067C305.005 170.315 325.576 164.529 335.542 164.529C345.506 164.529 356.767 166.285 363.188 169.352C369.417 172.325 377.654 178.158 380.547 184.587C383.439 191.016 381.745 202.935 380.546 205.675C379.324 208.469 373.058 219.137 367.366 222.391C362.839 224.982 356.116 225.285 352.901 223.999C349.686 222.714 346.791 216.928 343.258 214.677C339.723 212.427 332.65 212.427 329.757 212.107C326.865 211.784 323.649 212.107 315.612 210.498C307.577 208.891 304.303 207.083 300.826 204.069C296.004 199.889 296.288 190.655 298.254 186.067"/>
<path fill="#008555" d="M374.608 184.442C371.647 185.021 369.331 185.776 367.657 186.697C366.427 187.395 365.359 188.225 364.453 189.183C363.548 190.144 362.833 191.207 362.307 192.368C361.782 193.529 361.485 194.719 361.411 195.945C361.36 196.836 361.448 197.643 361.672 198.369C361.895 199.096 362.259 199.76 362.759 200.364L363.603 201.019C363.609 201.023 363.617 201.026 363.622 201.03C360.553 205.864 359.771 210.96 359.784 209.212C359.856 200.107 355.419 194.224 351.079 190.481C351.107 190.46 351.138 190.443 351.166 190.421L352.288 189.152C353.007 188.216 353.397 187.201 353.434 186.097C353.508 183.914 352.718 181.735 351.07 179.54C349.42 177.349 347.204 175.541 344.427 174.117C340.829 172.265 336.378 171.017 331.085 170.373C329.822 170.224 328.498 170.121 327.111 170.081C327.737 174.83 328.704 178.574 329.998 181.318C330.984 183.332 332.193 185.108 333.622 186.637C335.058 188.165 336.668 189.404 338.454 190.349C340.245 191.299 342.101 191.886 344.038 192.121C345.442 192.29 346.731 192.232 347.902 191.947C348.74 191.745 349.533 191.421 350.285 190.988C354.024 195.015 357.85 201.035 357.232 208.461C357.226 208.536 349.674 198.659 335.525 197.043L335.518 196.962C335.159 195.815 334.605 194.792 333.857 193.899C333.109 193.006 332.141 192.22 330.951 191.543C329.312 190.618 327.527 190.01 325.595 189.72C323.659 189.428 321.696 189.465 319.706 189.83C317.714 190.2 315.755 190.883 313.829 191.885C311.246 193.277 308.347 195.632 305.132 198.967C306.235 199.728 307.323 200.415 308.391 201.019C312.876 203.56 317.055 205.142 320.915 205.767C323.895 206.256 326.653 206.125 329.194 205.367C331.735 204.608 333.603 203.365 334.798 201.625C335.405 200.746 335.684 199.734 335.662 198.596L335.641 198.367C339.96 199.306 344.933 201.056 348.9 204.291C347.339 204.615 341.079 205.986 339.024 207.576C339.018 207.582 339.024 208.337 339.024 208.337C341.537 207.738 348.763 205.03 351.426 206.707C352.726 208.187 353.743 209.818 354.558 211.803C356.585 216.731 355.728 220.155 354.391 229.009C353.311 236.162 346.363 251.671 346.006 253.447C345.769 254.633 357.072 254.993 356.841 253.342C355.545 244.047 358.639 224.635 359.25 220.412C360.631 210.871 362.594 204.982 364.32 201.389C364.72 201.547 365.134 201.631 365.566 201.619C366.941 201.58 368.283 200.998 369.596 199.875C370.91 198.754 371.96 197.289 372.745 195.485C373.771 193.155 374.381 190.308 374.578 186.953C374.623 186.152 374.635 185.315 374.608 184.442"/>
</svg>
